<?xml version="1.0" encoding="UTF-8" standalone="no" ?>
<!DOCTYPE svg PUBLIC "-//W3C//DTD SVG 1.1//EN" "http://www.w3.org/Graphics/SVG/1.1/DTD/svg11.dtd">
<svg xmlns="http://www.w3.org/2000/svg" xmlns:xlink="http://www.w3.org/1999/xlink" version="1.1" width="200" height="200" viewBox="0 0 1080 1080" xml:space="preserve">
<desc>Created with Fabric.js 5.2.4</desc>
<defs>
</defs>
<rect x="0" y="0" width="100%" height="100%" fill="transparent"></rect>
<g transform="matrix(1 0 0 1 540 540)" id="bdb6cf9b-9e7c-4892-a77d-1b08e4525b69"  >
<rect style="stroke: none; stroke-width: 1; stroke-dasharray: none; stroke-linecap: butt; stroke-dashoffset: 0; stroke-linejoin: miter; stroke-miterlimit: 4; fill: rgb(255,255,255); fill-rule: nonzero; opacity: 1; visibility: hidden;" vector-effect="non-scaling-stroke"  x="-540" y="-540" rx="0" ry="0" width="1080" height="1080" />
</g>
<g transform="matrix(1 0 0 1 540 540)" id="0bc3b372-7036-4b41-9a0f-172df8af1cf0"  >
</g>
<g transform="matrix(1.56 0 0 1.56 539.51 760.56)"  >
<path style="stroke: none; stroke-width: 1; stroke-dasharray: none; stroke-linecap: butt; stroke-dashoffset: 0; stroke-linejoin: miter; stroke-miterlimit: 4; fill: rgb(202,62,73); fill-rule: nonzero; opacity: 1;" vector-effect="non-scaling-stroke"  transform=" translate(-256, -397.24)" d="M 61.793 450.207 L 450.207 450.207 L 450.207 344.276 L 61.793 344.276 L 61.793 450.207 z" stroke-linecap="round" />
</g>
<g transform="matrix(1.56 0 0 1.56 201.97 829.53)"  >
<path style="stroke: none; stroke-width: 1; stroke-dasharray: none; stroke-linecap: butt; stroke-dashoffset: 0; stroke-linejoin: miter; stroke-miterlimit: 4; fill: rgb(155,36,50); fill-rule: nonzero; opacity: 1;" vector-effect="non-scaling-stroke"  transform=" translate(-39.72, -441.38)" d="M 61.793 450.207 L 61.793 388.414 L 0 388.414 L 35.31 441.38 L 0 494.345 L 79.448 494.345 L 79.448 450.20700000000005 L 61.793 450.20700000000005 z" stroke-linecap="round" />
</g>
<g transform="matrix(1.56 0 0 1.56 877.83 829.53)"  >
<path style="stroke: none; stroke-width: 1; stroke-dasharray: none; stroke-linecap: butt; stroke-dashoffset: 0; stroke-linejoin: miter; stroke-miterlimit: 4; fill: rgb(155,36,50); fill-rule: nonzero; opacity: 1;" vector-effect="non-scaling-stroke"  transform=" translate(-472.28, -441.38)" d="M 512 388.414 L 450.207 388.414 L 450.207 450.207 L 432.552 450.207 L 432.552 494.34499999999997 L 512 494.34499999999997 L 476.69 441.37899999999996 L 512 388.414 z" stroke-linecap="round" />
</g>
<g transform="matrix(1.56 0 0 1.56 402 733.08)"  >
<path style="stroke: none; stroke-width: 1; stroke-dasharray: none; stroke-linecap: butt; stroke-dashoffset: 0; stroke-linejoin: miter; stroke-miterlimit: 4; fill: rgb(255,255,255); fill-rule: nonzero; opacity: 1;" vector-effect="non-scaling-stroke"  transform=" translate(-167.72, -379.59)" d="M 185.379 388.414 L 150.069 388.414 C 145.18699999999998 388.414 141.24099999999999 384.46799999999996 141.24099999999999 379.586 C 141.24099999999999 374.70400000000006 145.18699999999998 370.75800000000004 150.069 370.75800000000004 L 185.379 370.75800000000004 C 190.261 370.75800000000004 194.207 374.70400000000006 194.207 379.586 C 194.207 384.46799999999996 190.261 388.414 185.379 388.414" stroke-linecap="round" />
</g>
<g transform="matrix(1.56 0 0 1.56 526.12 733.08)"  >
<path style="stroke: none; stroke-width: 1; stroke-dasharray: none; stroke-linecap: butt; stroke-dashoffset: 0; stroke-linejoin: miter; stroke-miterlimit: 4; fill: rgb(255,255,255); fill-rule: nonzero; opacity: 1;" vector-effect="non-scaling-stroke"  transform=" translate(-247.17, -379.59)" d="M 273.655 388.414 L 220.69 388.414 C 215.808 388.414 211.862 384.46799999999996 211.862 379.586 C 211.862 374.70400000000006 215.808 370.75800000000004 220.69 370.75800000000004 L 273.656 370.75800000000004 C 278.538 370.75800000000004 282.484 374.70400000000006 282.484 379.586 C 282.484 384.46799999999996 278.537 388.414 273.655 388.414" stroke-linecap="round" />
</g>
<g transform="matrix(1.56 0 0 1.56 436.43 788.26)"  >
<path style="stroke: none; stroke-width: 1; stroke-dasharray: none; stroke-linecap: butt; stroke-dashoffset: 0; stroke-linejoin: miter; stroke-miterlimit: 4; fill: rgb(255,255,255); fill-rule: nonzero; opacity: 1;" vector-effect="non-scaling-stroke"  transform=" translate(-189.79, -414.9)" d="M 229.517 423.724 L 150.06900000000002 423.724 C 145.187 423.724 141.241 419.77799999999996 141.241 414.896 C 141.241 410.014 145.187 406.06800000000004 150.06900000000002 406.06800000000004 L 229.517 406.06800000000004 C 234.399 406.06800000000004 238.345 410.01400000000007 238.345 414.896 C 238.345 419.778 234.399 423.724 229.517 423.724" stroke-linecap="round" />
</g>
<g transform="matrix(1.56 0 0 1.56 691.68 788.26)"  >
<path style="stroke: none; stroke-width: 1; stroke-dasharray: none; stroke-linecap: butt; stroke-dashoffset: 0; stroke-linejoin: miter; stroke-miterlimit: 4; fill: rgb(255,255,255); fill-rule: nonzero; opacity: 1;" vector-effect="non-scaling-stroke"  transform=" translate(-353.1, -414.9)" d="M 361.931 423.724 L 344.27599999999995 423.724 C 339.39399999999995 423.724 335.448 419.77799999999996 335.448 414.896 C 335.448 410.014 339.394 406.06800000000004 344.27599999999995 406.06800000000004 L 361.9309999999999 406.06800000000004 C 366.81299999999993 406.06800000000004 370.7589999999999 410.01400000000007 370.7589999999999 414.896 C 370.759 419.778 366.813 423.724 361.931 423.724" stroke-linecap="round" />
</g>
<g transform="matrix(1.56 0 0 1.56 588.2 788.26)"  >
<path style="stroke: none; stroke-width: 1; stroke-dasharray: none; stroke-linecap: butt; stroke-dashoffset: 0; stroke-linejoin: miter; stroke-miterlimit: 4; fill: rgb(255,255,255); fill-rule: nonzero; opacity: 1;" vector-effect="non-scaling-stroke"  transform=" translate(-286.9, -414.9)" d="M 308.966 423.724 L 264.82800000000003 423.724 C 259.946 423.724 256.00000000000006 419.77799999999996 256.00000000000006 414.896 C 256.00000000000006 410.014 259.9460000000001 406.06800000000004 264.82800000000003 406.06800000000004 L 308.966 406.06800000000004 C 313.848 406.06800000000004 317.794 410.01400000000007 317.794 414.896 C 317.793 419.778 313.847 423.724 308.966 423.724" stroke-linecap="round" />
</g>
<g transform="matrix(1.56 0 0 1.56 670.96 733.08)"  >
<path style="stroke: none; stroke-width: 1; stroke-dasharray: none; stroke-linecap: butt; stroke-dashoffset: 0; stroke-linejoin: miter; stroke-miterlimit: 4; fill: rgb(255,255,255); fill-rule: nonzero; opacity: 1;" vector-effect="non-scaling-stroke"  transform=" translate(-339.86, -379.59)" d="M 361.931 388.414 L 317.793 388.414 C 312.911 388.414 308.96500000000003 384.46799999999996 308.96500000000003 379.586 C 308.96500000000003 374.70400000000006 312.91100000000006 370.75800000000004 317.793 370.75800000000004 L 361.931 370.75800000000004 C 366.813 370.75800000000004 370.75899999999996 374.70400000000006 370.75899999999996 379.586 C 370.75899999999996 384.46799999999996 366.813 388.414 361.931 388.414" stroke-linecap="round" />
</g>
<g transform="matrix(1.56 0 0 1.56 539.58 463.81)"  >
<path style="stroke: none; stroke-width: 1; stroke-dasharray: none; stroke-linecap: butt; stroke-dashoffset: 0; stroke-linejoin: miter; stroke-miterlimit: 4; fill: rgb(205,127,50); fill-rule: nonzero; opacity: 1;" vector-effect="non-scaling-stroke"  transform=" translate(-256, -207.45)" d="M 385.896 344.276 C 409.51 315.375 423.72200000000004 278.493 423.72200000000004 238.34500000000003 C 423.72200000000004 145.85800000000003 348.48400000000004 70.62100000000004 255.99800000000005 70.62100000000004 C 163.52000000000004 70.62100000000004 88.27400000000006 145.85900000000004 88.27400000000006 238.34500000000003 C 88.27400000000006 278.49300000000005 102.48600000000006 315.375 126.10000000000005 344.276 L 385.896 344.276 z" stroke-linecap="round" />
</g>
<g transform="matrix(1.56 0 0 1.56 539.87 415.74)"  >
<path style="stroke: none; stroke-width: 1; stroke-dasharray: none; stroke-linecap: butt; stroke-dashoffset: 0; stroke-linejoin: miter; stroke-miterlimit: 4; fill: rgb(167,96,39); fill-rule: nonzero; opacity: 1;" vector-effect="non-scaling-stroke"  transform=" translate(-256, -176.55)" d="M 308.966 176.552 C 308.966 147.297 285.255 123.58599999999998 256 123.58599999999998 C 226.745 123.58599999999998 203.034 147.29699999999997 203.034 176.552 C 203.034 205.807 226.745 229.518 256 229.518 C 285.255 229.518 308.966 205.806 308.966 176.552" stroke-linecap="round" />
</g>
<g transform="matrix(1.56 0 0 1.56 539.82 588.23)"  >
<path style="stroke: none; stroke-width: 1; stroke-dasharray: none; stroke-linecap: butt; stroke-dashoffset: 0; stroke-linejoin: miter; stroke-miterlimit: 4; fill: rgb(162,99,37); fill-rule: nonzero; opacity: 1;" vector-effect="non-scaling-stroke"  transform=" translate(-256, -286.96)" d="M 326.621 344.276 L 185.379 344.276 L 185.379 300.262 C 185.379 261.262 216.999 229.64100000000002 256 229.64100000000002 C 295.001 229.64100000000002 326.621 261.261 326.621 300.262 L 326.621 344.276 z" stroke-linecap="round" />
</g>
<g transform="matrix(0 0 0 0 0 0)"  >
<g style=""   >
</g>
</g>
<g transform="matrix(0 0 0 0 0 0)"  >
<g style=""   >
</g>
</g>
<g transform="matrix(0 0 0 0 0 0)"  >
<g style=""   >
</g>
</g>
<g transform="matrix(0 0 0 0 0 0)"  >
<g style=""   >
</g>
</g>
<g transform="matrix(0 0 0 0 0 0)"  >
<g style=""   >
</g>
</g>
</svg>